PathFileType	4	(X/Y/Z)	Kaydara																																																																																																																									
DataRate	CameraRate	NumFrames	NumMarkers	Units	OrigDataRate	OrigDataStartFrame	OrigNumFrames																																																																																																																					
30	30	4	41	mm	30	95	151																																																																																																																					
Frame#	Time	SALE_LFHD			SALE_RFHD			SALE_LBHD			SALE_RBHD			SALE_LFTShould			SALE_RFTShould			SALE_LRRShould			SALE_RRRShould			SALE_T10			SALE_STRN			SALE_TRUN			SALE_LSHO			SALE_LUPA			SALE_LELB			SALE_LFRM			SALE_LWRA			SALE_LWRB			SALE_LFIN			SALE_RSHO			SALE_RUPA			SALE_RELB			SALE_RFRM			SALE_RWRB			SALE_RFIN			SALE_LFWT			SALE_RFWT			SALE_LBWT			SALE_RBWT			SALE_LTHI			SALE_LKNE			SALE_RWRA			SALE_LSHN			SALE_LANK			SALE_LHEE			SALE_LTOE			SALE_RTHI			SALE_RKNE			SALE_RSHN			SALE_RANK			SALE_RHEE			SALE_RTOE		
		X1	Y1	Z1	X2	Y2	Z2	X3	Y3	Z3	X4	Y4	Z4	X5	Y5	Z5	X6	Y6	Z6	X7	Y7	Z7	X8	Y8	Z8	X9	Y9	Z9	X10	Y10	Z10	X11	Y11	Z11	X12	Y12	Z12	X13	Y13	Z13	X14	Y14	Z14	X15	Y15	Z15	X16	Y16	Z16	X17	Y17	Z17	X18	Y18	Z18	X19	Y19	Z19	X20	Y20	Z20	X21	Y21	Z21	X22	Y22	Z22	X23	Y23	Z23	X24	Y24	Z24	X25	Y25	Z25	X26	Y26	Z26	X27	Y27	Z27	X28	Y28	Z28	X29	Y29	Z29	X30	Y30	Z30	X31	Y31	Z31	X32	Y32	Z32	X33	Y33	Z33	X34	Y34	Z34	X35	Y35	Z35	X36	Y36	Z36	X37	Y37	Z37	X38	Y38	Z38	X39	Y39	Z39	X40	Y40	Z40	X41	Y41	Z41
																																																																																																																												
95	3.143	199.14787	1593.42148	-799.37019	66.71332	1591.96091	-798.35693	194.10765	1551.47247	-925.86433	67.86794	1550.91614	-919.09645	203.72417	1315.56381	-787.17705	63.11476	1306.16608	-810.60173	214.76866	1388.21167	-897.425	64.18507	1384.39331	-910.45967	158.94405	1241.74713	-988.33565	127.55243	1232.87094	-761.93153	125.14776	1142.30713	-734.28543	326.91566	1357.1402	-833.57086	377.85069	1146.1161	-832.16576	374.22531	1033.41591	-839.14642	380.15556	962.1347	-740.84862	293.86026	917.03133	-610.58689	358.95615	877.6342	-620.13271	350.99785	895.76141	-560.11639	-31.4789	1340.7724	-888.899	-24.68803	1160.52612	-1032.79305	-78.87394	1063.41103	-1052.99088	-72.11916	974.37111	-1117.71774	-110.79918	846.32858	-1168.42323	-139.59647	788.06465	-1161.47293	284.49474	905.43602	-867.63878	11.83186	912.00912	-845.03738	212.51797	977.84523	-1023.33916	34.17287	981.84822	-1015.48325	247.55295	651.4563	-1088.92303	261.07845	462.90627	-1065.47195	-89.79166	808.50838	-1105.95055	257.0698	307.39126	-1210.12421	254.52656	214.43726	-1375.81528	218.22117	233.60283	-1451.09344	214.75407	65.70829	-1345.22629	-7.93601	651.44753	-894.46846	36.1818	561.34914	-716.45256	88.95114	363.50983	-678.08273	34.86343	111.57641	-703.96896	56.05409	61.55819	-578.46794	76.15049	48.98397	-772.58072
96	3.177	188.27145	1601.96655	-745.43503	55.92114	1596.63589	-745.83649	185.75518	1551.76041	-869.17641	59.6249	1547.98615	-863.37044	200.68029	1322.57904	-722.53387	61.90381	1309.14749	-740.33325	208.99929	1397.2229	-830.0676	57.55184	1391.01013	-837.53777	151.4544	1252.66609	-922.72057	127.5199	1237.3864	-693.9119	127.2427	1145.20142	-669.65332	322.38811	1364.84222	-768.10661	373.61843	1153.36067	-778.67348	369.01035	1043.06358	-793.63708	378.96511	957.7301	-705.95596	295.84038	888.4771	-583.25657	363.04356	854.17618	-600.02232	353.12725	857.37656	-537.73331	-37.03708	1344.25995	-813.05534	-33.14283	1161.48094	-953.56972	-82.51914	1062.03674	-971.01288	-74.88751	971.33232	-1034.18114	-110.18685	840.83527	-1080.29114	-133.04564	779.55254	-1073.1662	282.15218	911.52229	-808.9505	9.03485	925.54703	-783.74237	213.67273	982.18719	-966.03165	36.06036	992.19269	-956.19881	245.35799	628.13419	-998.24387	259.20265	445.24696	-950.25978	-84.60746	805.24155	-1018.30017	255.44189	308.75889	-1113.77731	255.94675	243.90451	-1292.05276	222.45655	278.23717	-1361.81854	214.99496	92.43752	-1291.54709	-16.2631	667.68997	-835.53749	41.0456	567.75925	-670.37094	95.74993	360.53177	-650.56168	40.91122	107.79551	-690.01404	56.23012	60.60949	-578.52879	75.71671	50.3014	-769.85054
97	3.21	179.52522	1612.6976	-689.43184	47.23665	1602.73376	-690.47188	179.74096	1553.84903	-810.04654	53.71082	1546.33835	-804.72878	201.54789	1329.31091	-661.27754	61.83484	1314.44641	-672.03712	204.26003	1407.54684	-768.41843	50.86842	1399.83444	-767.23679	142.021	1264.90906	-862.07787	131.51047	1241.22482	-631.98708	133.45278	1147.79556	-611.54682	321.68522	1371.55762	-712.60223	371.39656	1158.39233	-731.3623	365.94063	1048.03688	-754.0023	380.23613	951.00464	-684.58237	302.49857	857.44827	-575.34691	371.10191	830.0193	-600.20111	360.82691	816.07094	-539.1087	-40.87234	1349.88373	-737.49939	-45.97946	1161.37596	-873.89839	-87.9812	1058.7645	-883.27652	-80.083	965.49057	-943.46603	-111.8171	830.94574	-980.24658	-127.01345	766.66847	-969.23103	281.06403	919.06586	-753.72688	8.15921	937.51762	-724.6048	214.27002	987.93358	-912.32285	35.31174	1004.23943	-897.05109	245.67074	616.73443	-904.91615	261.83655	443.11352	-827.57401	-79.36125	801.17569	-918.8533	253.08908	314.74072	-995.33951	250.09352	265.84652	-1178.45261	211.99961	303.08994	-1246.25648	221.09089	117.28546	-1181.18713	-14.07799	674.35349	-797.44926	43.21528	562.64336	-643.15475	97.42991	357.0277	-636.31813	41.01811	107.49964	-692.33147	59.26743	61.0365	-578.27679	76.14198	50.09628	-769.96368
98	3.243	174.60243	1626.31058	-630.60009	42.77553	1613.46512	-631.11076	175.96497	1565.01663	-749.84024	50.21673	1554.85062	-744.05617	205.1436	1340.45471	-602.48459	66.02761	1324.98764	-607.76215	201.73841	1420.76157	-707.99896	47.9878	1411.52145	-701.25931	134.86631	1278.63518	-801.20605	138.06159	1250.70091	-572.18151	142.26816	1157.06581	-553.15533	322.13428	1382.72644	-659.29634	371.01173	1170.45654	-699.51118	361.05667	1061.28151	-726.1747	383.52219	955.79651	-676.56746	313.00898	837.23267	-586.15368	381.65466	819.60503	-618.56224	373.29178	788.74008	-563.60641	-41.06673	1359.62326	-667.39861	-58.20372	1161.27617	-795.13184	-92.95258	1056.56525	-793.57323	-86.08561	959.56062	-847.41325	-114.33971	820.29297	-868.7413	-122.83508	755.8403	-850.3476	283.01159	933.17497	-701.30112	8.71079	947.43256	-666.87645	210.21288	1003.82912	-856.65131	32.67388	1020.09216	-838.35022	247.92276	619.20483	-810.54924	265.73219	460.66673	-703.18741	-75.32543	799.24477	-808.50929	252.25031	324.80339	-862.6577	242.84262	267.74908	-1043.40919	202.07081	298.72173	-1114.25179	217.84006	122.97656	-1028.45505	-15.89507	687.44247	-764.73625	43.78108	558.54279	-623.8287	95.38301	355.19623	-629.75197	40.66523	106.80628	-691.38847	59.44694	61.18167	-578.9502	76.07053	49.4802	-771.15341
